<svg version="1.1" id="Layer_1" xmlns="http://www.w3.org/2000/svg" xmlns:xlink="http://www.w3.org/1999/xlink" x="0px" y="0px"
	 width="100%" viewBox="0 0 1000 1000" enable-background="new 0 0 1000 1000" xml:space="preserve">
<rect x="139.9" y="137.2" width="724.6" height="724.6" fill="#EE2732" rx="150" ry="150" />
<path fill="#FFFFFF" opacity="1.000000" stroke="none" 
	d="
M141.528000,494.811340 
	C152.899948,501.190277 160.759018,498.988586 166.709961,487.897675 
	C182.044083,459.319305 197.343536,430.722351 212.665314,402.137360 
	C213.432327,400.706390 214.279114,399.318115 215.447617,397.285858 
	C224.155884,413.414276 232.584152,428.877167 240.870789,444.415588 
	C248.227448,458.210175 255.379364,472.113861 262.709381,485.922760 
	C269.753448,499.192932 276.970001,501.482727 290.428741,494.665222 
	C300.814850,489.404114 311.103394,483.950531 321.441711,478.594910 
	C323.172791,477.698181 324.936462,476.864502 327.606476,475.546997 
	C325.455994,487.084778 323.497345,497.680481 321.504486,508.269714 
	C314.426544,545.878845 307.242645,583.468628 300.381409,621.117126 
	C299.600769,625.400696 299.955292,630.160522 300.943970,634.430847 
	C302.267365,640.146790 307.158386,642.544373 312.546936,640.250671 
	C316.097809,638.739075 319.667328,636.438171 322.241302,633.596497 
	C342.599213,611.120850 362.718079,588.428772 382.920959,565.812683 
	C383.551483,565.106812 384.296265,564.502991 385.494232,563.374451 
	C388.704224,574.380066 391.735718,584.828796 394.800781,595.267700 
	C398.082794,606.445374 402.451447,608.950134 413.996826,606.508606 
	C438.084198,601.414612 462.181915,596.369568 486.278778,591.320618 
	C487.072479,591.154297 487.902771,591.162659 489.420685,591.026245 
	C488.805359,593.818787 488.365570,596.317627 487.700684,598.755066 
	C480.655151,624.582642 473.570068,650.399353 466.510193,676.223022 
	C465.984253,678.146667 465.407806,680.077637 465.129822,682.044128 
	C464.072723,689.522400 465.653046,692.038330 472.622070,695.211975 
	C482.131409,699.542480 491.564697,704.039856 501.577576,708.721497 
	C500.575714,709.802734 500.038788,710.541199 499.354279,711.098267 
	C455.169403,747.060669 411.049500,783.103638 366.709320,818.873474 
	C358.289093,825.666199 355.733917,833.406494 359.133850,843.504517 
	C361.201691,849.646118 362.948242,855.895813 364.872864,862.464966 
	C322.751190,862.888611 280.595764,862.960022 238.440338,862.995056 
	C206.947128,863.021179 175.453888,863.000305 143.960663,863.000366 
	C142.487106,863.000427 141.013565,863.000366 139.217484,863.000366 
	C139.137436,861.328186 139.008286,859.888428 139.008179,858.448608 
	C138.998886,738.474426 138.991852,618.500244 139.111572,498.526215 
	C139.112747,497.347687 137.065063,494.078369 141.528000,494.811340 
z"/>
</svg>